<svg width="570" height="413" viewBox="0 0 570 413" fill="none" xmlns="http://www.w3.org/2000/svg">
<path d="M3.90254 54.0548C1.79463 25.0878 24.7271 0.425903 53.7707 0.425903H519.111C546.725 0.425903 569.111 22.8117 569.111 50.4259V298.76C569.111 323.885 550.465 345.108 525.549 348.343L82.4664 405.875C53.9819 409.573 28.2448 388.568 26.1602 359.92L3.90254 54.0548Z" fill="white"/>
<mask id="mask0_2004_702" style="mask-type:alpha" maskUnits="userSpaceOnUse" x="3" y="0" width="567" height="407">
<path d="M3.90254 54.0548C1.79463 25.0878 24.7271 0.425903 53.7707 0.425903H519.111C546.725 0.425903 569.111 22.8117 569.111 50.4259V298.76C569.111 323.885 550.465 345.108 525.549 348.343L82.4664 405.875C53.9819 409.573 28.2448 388.568 26.1602 359.92L3.90254 54.0548Z" fill="white"/>
</mask>
<g mask="url(#mask0_2004_702)">
<path d="M506.488 327.302C490.327 339.66 481.817 334.81 481.817 334.81C488.506 343.003 496.479 346.395 496.479 346.395C502.41 346.149 511.966 336.101 511.966 336.101C517.214 328.865 518.616 331.928 518.616 331.928C520.011 332.936 514.764 340.172 514.764 340.172C509.439 346.196 502.644 350.013 502.644 350.013C506.387 351.717 515.148 352.227 515.148 352.227C530.769 355.829 536.964 340.364 536.964 340.364C540.742 334.793 538.06 331.11 538.06 331.11C529.635 324.182 531.925 319.696 531.925 319.696C533.98 318.314 535.571 320.485 535.571 320.485C540.088 324.327 543.104 324.707 543.104 324.707C549.013 326.121 555.749 320.049 555.749 320.049C556.577 317.432 555.728 314.97 555.975 312.64C556.279 309.768 557.954 305.659 557.636 303.258C557.209 299.995 555.709 298.088 554.759 295.844C553.012 291.698 551.242 289.957 551.242 289.957C550.725 295.319 548.402 300.92 548.402 300.92C540.474 315.84 535.534 311.476 535.534 311.476C535.245 309.739 537.382 308.088 537.382 308.088C550.485 296.529 546.84 283.259 546.84 283.259C541.7 277.192 533.111 271.827 533.111 271.827C533.111 271.827 533.19 271.994 533.269 272.161C537.775 281.997 531.541 299.877 531.541 299.877C529.29 306.566 527.013 305.007 527.013 305.007C524.817 303.527 527.705 299.222 527.705 299.222C532.31 287.46 527.422 271.87 527.422 271.87C518.145 266.41 509.539 266.122 509.539 266.122C515.186 270.503 516.59 286.655 516.59 286.655C519.721 295.516 516.203 300.009 516.203 300.009C512.421 300.323 511.98 294.454 511.98 294.454C512.754 279.611 502.237 267.573 502.237 267.573C497.816 269.313 494.042 270.508 490.846 271.303C494.341 273.634 498.644 277.187 500.6 281.499C500.6 281.499 503.986 289.208 500.898 290.288C500.898 290.288 497.467 290.036 492.677 277.709C492.677 277.709 492.011 274.612 489.412 271.635C478.068 274.179 474.595 271.464 474.595 271.464C477.841 274.938 472.845 290.925 472.845 290.925C479.539 295.319 489.718 295.787 489.718 295.787C497.815 295.332 497.437 299.254 497.437 299.254C497.436 302.599 492.912 302.873 492.912 302.873C477.35 301.308 468.735 292.166 468.735 292.166C466.676 301.001 469.23 306.916 469.23 306.916C483.445 316.43 493.091 313.233 493.091 313.233C496.389 311.573 502.452 310.313 502.452 310.313C506.937 309.029 508.453 312.648 508.453 312.648C506.777 316.875 498.35 317.879 498.35 317.879C483.449 320.015 469.333 313.249 469.333 313.249C470.353 321.914 476.487 328.927 476.487 328.927C485.684 334.538 493.525 330.056 493.525 330.056C504.519 324.485 510.715 323.782 510.715 323.782C513.626 323.841 506.487 327.271 506.487 327.271L506.488 327.302Z" fill="#EBF4D7"/>
<path d="M517.375 308.687C521.022 310.88 524.456 313.313 527.813 315.89C531.159 318.469 534.381 321.223 537.433 324.174C540.486 327.124 543.375 330.265 546 333.645C547.315 335.332 548.544 337.096 549.703 338.908C550.859 340.728 551.908 342.623 552.871 344.565L549.629 346.05C548.809 344.203 547.902 342.383 546.889 340.609C545.855 338.853 544.77 337.115 543.576 335.442C541.201 332.093 538.533 328.916 535.679 325.916C532.825 322.915 529.78 320.068 526.602 317.391C523.425 314.714 520.104 312.159 516.655 309.866L517.372 308.675L517.375 308.687Z" fill="#EBF4D7"/>
</g>
</svg>
