<svg width="58" height="51" viewBox="0 0 58 51" fill="none" xmlns="http://www.w3.org/2000/svg">
<path d="M33.862 11.4917C44.6455 3.97844 49.9992 7.35152 49.9992 7.35152C45.9169 1.87259 40.868 -0.544454 40.868 -0.544454C37.0334 -0.555623 30.5781 5.65635 30.5781 5.65635C26.9846 10.1761 26.167 8.15904 26.167 8.15904C25.2958 7.46869 28.8893 2.94894 28.8893 2.94894C32.4984 -0.78681 36.9926 -3.05586 36.9926 -3.05586C34.6255 -4.26245 28.9863 -4.84264 28.9863 -4.84264C19.0077 -7.61377 14.5672 2.18976 14.5672 2.18976C11.9694 5.67716 13.595 8.13101 13.595 8.13101C18.834 12.8432 17.2281 15.6727 17.2281 15.6727C15.8621 16.5056 14.8975 15.059 14.8975 15.059C12.0917 12.4504 10.1561 12.1185 10.1561 12.1185C6.3833 11.0374 1.86182 14.763 1.86182 14.763C1.25274 16.4287 1.73018 18.0416 1.50433 19.5383C1.22577 21.3836 0.0273632 23.9875 0.163862 25.5461C0.345952 27.6639 1.25972 28.938 1.80867 30.4131C2.81743 33.1389 3.90979 34.3132 3.90979 34.3132C4.39715 30.8673 6.05649 27.3193 6.05649 27.3193C11.5998 17.9168 14.6631 20.8748 14.6631 20.8748C14.8002 22.0039 13.3735 23.0082 13.3735 23.0082C4.58643 30.0935 6.55928 38.7622 6.55928 38.7622C9.70308 42.825 15.0927 46.5327 15.0927 46.5327C15.0927 46.5327 15.0466 46.4228 15.0005 46.3128C12.3739 39.8357 16.9086 28.4746 16.9086 28.4746C18.5526 24.2221 19.9779 25.2933 19.9779 25.2933C21.3527 26.3111 19.3659 29.007 19.3659 29.007C16.0572 36.4666 18.7655 46.668 18.7655 46.668C24.597 50.4573 30.1428 50.8894 30.1428 50.8894C26.6239 47.9004 26.1799 37.4355 26.1799 37.4355C24.4122 31.6273 26.8114 28.8281 26.8114 28.8281C29.2611 28.7339 29.3782 32.5345 29.3782 32.5345C28.4539 42.0917 34.8972 50.1619 34.8972 50.1619C37.8003 49.1649 40.2701 48.5022 42.3553 48.0802C40.1661 46.4758 37.4907 44.0595 36.3518 41.221C36.3518 41.221 34.3871 36.1483 36.4107 35.5401C36.4107 35.5401 38.6182 35.801 41.357 43.8933C41.357 43.8933 41.6978 45.9115 43.2902 47.9069C50.6843 46.5895 52.848 48.4415 52.848 48.4415C50.8528 46.1062 54.5344 35.9315 54.5344 35.9315C50.3399 32.9042 43.7836 32.3108 43.7836 32.3108C38.5447 32.3731 38.9012 29.8521 38.9012 29.8521C38.9972 27.6939 41.9253 27.646 41.9253 27.646C51.9238 29.1012 57.2227 35.2483 57.2227 35.2483C58.8039 29.6053 57.3249 25.7145 57.3249 25.7145C48.4228 19.1675 42.1058 20.9546 42.1058 20.9546C39.9301 21.9316 35.9809 22.5717 35.9809 22.5717C33.0496 23.2722 32.1746 20.8931 32.1746 20.8931C33.3774 18.2128 38.8448 17.8061 38.8448 17.8061C48.523 16.8534 57.4394 21.6244 57.4394 21.6244C57.0293 16.0027 53.2712 11.3009 53.2712 11.3009C47.496 7.41681 42.3073 10.0848 42.3073 10.0848C35.0522 13.3657 31.0333 13.6423 31.0333 13.6423C29.1563 13.5212 33.862 11.5115 33.862 11.5115L33.862 11.4917Z" fill="#CBE491"/>
<path d="M26.3035 23.1943C24.0121 21.6743 21.8656 20.0056 19.7724 18.2467C17.6869 16.4862 15.6867 14.617 13.8008 12.6253C11.9149 10.6336 10.1403 8.52398 8.54269 6.26722C7.74236 5.14114 6.99999 3.96755 6.30341 2.76481C5.60987 1.55748 4.98653 0.304149 4.4212 -0.976828L6.55583 -1.84211C7.03236 -0.626652 7.56541 0.573397 8.1687 1.74731C8.78572 2.91048 9.43635 4.06289 10.1587 5.17692C11.5958 7.40653 13.2268 9.53331 14.9828 11.5513C16.7388 13.5693 18.623 15.4937 20.5971 17.3125C22.5713 19.1313 24.6415 20.875 26.8015 22.4535L26.305 23.202L26.3035 23.1943Z" fill="#CBE491"/>
</svg>
