<svg width="73" height="67" viewBox="0 0 73 67" fill="none" xmlns="http://www.w3.org/2000/svg">
<path d="M31.4106 49.554C18.4917 59.4327 11.6886 55.5563 11.6886 55.5563C17.0354 62.1057 23.4093 64.8169 23.4093 64.8169C28.1502 64.6206 35.7898 56.5877 35.7898 56.5877C39.9844 50.8035 41.1057 53.2521 41.1057 53.2521C42.2205 54.0578 38.0259 59.842 38.0259 59.842C33.7691 64.6579 28.3377 67.7092 28.3377 67.7092C31.3299 69.071 38.333 69.4793 38.333 69.4793C50.8203 72.3581 55.7724 59.9957 55.7724 59.9957C58.7928 55.5422 56.6488 52.5979 56.6488 52.5979C49.914 47.0598 51.7443 43.474 51.7443 43.474C53.3872 42.3694 54.6589 44.1049 54.6589 44.1049C58.2704 47.1759 60.6813 47.48 60.6813 47.48C65.4045 48.6098 70.7898 43.7565 70.7898 43.7565C71.4515 41.6639 70.7729 39.6963 70.9701 37.8337C71.2133 35.5373 72.5521 32.2526 72.2979 30.3334C71.9568 27.7253 70.7574 26.2004 69.9979 24.4069C68.6015 21.0926 67.1868 19.7008 67.1868 19.7008C66.7732 23.9874 64.9163 28.4642 64.9163 28.4642C58.579 40.3914 54.63 36.9026 54.63 36.9026C54.3987 35.5143 56.1073 34.1946 56.1073 34.1946C66.5816 24.9543 63.6677 14.3461 63.6677 14.3461C59.5587 9.49599 52.6929 5.20788 52.6929 5.20788C52.6929 5.20788 52.756 5.34125 52.819 5.47462C56.4209 13.3377 51.4376 27.6308 51.4376 27.6308C49.6383 32.9778 47.8177 31.7317 47.8177 31.7317C46.0625 30.5488 48.3708 27.1073 48.3708 27.1073C52.0523 17.7045 48.1452 5.24184 48.1452 5.24184C40.7286 0.877156 33.8494 0.646815 33.8494 0.646815C38.3632 4.14904 39.4855 17.0614 39.4855 17.0614C41.989 24.1446 39.1765 27.7364 39.1765 27.7364C36.1533 27.9871 35.8003 23.2952 35.8003 23.2952C36.4192 11.43 28.0118 1.80676 28.0118 1.80676C24.4776 3.19825 21.4608 4.15291 18.9062 4.7888C21.7003 6.65214 25.1401 9.49257 26.7036 12.9392C26.7036 12.9392 29.4103 19.1023 26.942 19.9651C26.942 19.9651 24.1988 19.7635 20.3698 9.90987C20.3698 9.90987 19.8379 7.43374 17.7599 5.05425C8.69161 7.08796 5.91535 4.91709 5.91535 4.91709C8.50973 7.69469 4.51615 20.4744 4.51615 20.4744C9.86721 23.9868 18.0046 24.3611 18.0046 24.3611C24.4775 23.997 24.175 27.133 24.175 27.133C24.1746 29.8062 20.5575 30.0259 20.5575 30.0259C8.11761 28.7749 1.23032 21.4662 1.23032 21.4662C-0.415173 28.5288 1.62645 33.2575 1.62645 33.2575C12.9899 40.8631 20.7011 38.3076 20.7011 38.3076C23.337 36.9807 28.184 35.973 28.184 35.973C31.7692 34.9464 32.9813 37.8395 32.9813 37.8395C31.6412 41.2189 24.9047 42.0212 24.9047 42.0212C12.9928 43.7293 1.70901 38.3199 1.70901 38.3199C2.52405 45.247 7.42744 50.8534 7.42744 50.8534C14.7795 55.3385 21.0476 51.756 21.0476 51.756C29.8365 47.3025 34.7895 46.7404 34.7895 46.7404C37.1165 46.7872 31.4094 49.5295 31.4094 49.5295L31.4106 49.554Z" fill="#F2F0E3"/>
<path d="M40.1131 34.673C43.0289 36.4266 45.7739 38.3717 48.4579 40.4314C51.1325 42.4934 53.7076 44.6945 56.148 47.0533C58.5885 49.4121 60.8978 51.9228 62.9965 54.625C64.0476 55.9732 65.0296 57.3833 65.9566 58.832C66.8801 60.2865 67.7194 61.8017 68.4884 63.3542L65.897 64.5409C65.2413 63.0644 64.5166 61.6102 63.7065 60.192C62.88 58.7879 62.0125 57.399 61.0585 56.0614C59.1598 53.3839 57.0271 50.8442 54.7457 48.4458C52.4643 46.0474 50.0296 43.7716 47.4896 41.6314C44.9495 39.4912 42.2947 37.4491 39.538 35.6162L40.1108 34.6637L40.1131 34.673Z" fill="#F2F0E3"/>
</svg>
