<svg width="58" height="50" viewBox="0 0 58 50" fill="none" xmlns="http://www.w3.org/2000/svg">
<path d="M33.862 10.4917C44.6455 2.97844 49.9992 6.35152 49.9992 6.35152C45.9169 0.872593 40.868 -1.54445 40.868 -1.54445C37.0334 -1.55562 30.5781 4.65635 30.5781 4.65635C26.9846 9.17609 26.167 7.15904 26.167 7.15904C25.2958 6.46869 28.8893 1.94894 28.8893 1.94894C32.4984 -1.78681 36.9926 -4.05586 36.9926 -4.05586C34.6255 -5.26245 28.9863 -5.84264 28.9863 -5.84264C19.0077 -8.61377 14.5672 1.18976 14.5672 1.18976C11.9694 4.67716 13.595 7.13101 13.595 7.13101C18.834 11.8432 17.2281 14.6727 17.2281 14.6727C15.8621 15.5056 14.8975 14.059 14.8975 14.059C12.0917 11.4504 10.1561 11.1185 10.1561 11.1185C6.3833 10.0374 1.86182 13.763 1.86182 13.763C1.25274 15.4287 1.73018 17.0416 1.50433 18.5383C1.22577 20.3836 0.0273632 22.9875 0.163862 24.5461C0.345952 26.6639 1.25972 27.938 1.80867 29.4131C2.81743 32.1389 3.90979 33.3132 3.90979 33.3132C4.39715 29.8673 6.05649 26.3193 6.05649 26.3193C11.5998 16.9168 14.6631 19.8748 14.6631 19.8748C14.8002 21.0039 13.3735 22.0082 13.3735 22.0082C4.58643 29.0935 6.55928 37.7622 6.55928 37.7622C9.70308 41.825 15.0927 45.5327 15.0927 45.5327C15.0927 45.5327 15.0466 45.4228 15.0005 45.3128C12.3739 38.8357 16.9086 27.4746 16.9086 27.4746C18.5526 23.2221 19.9779 24.2933 19.9779 24.2933C21.3527 25.3111 19.3659 28.007 19.3659 28.007C16.0572 35.4666 18.7655 45.668 18.7655 45.668C24.597 49.4573 30.1428 49.8894 30.1428 49.8894C26.6239 46.9004 26.1799 36.4355 26.1799 36.4355C24.4122 30.6273 26.8114 27.8281 26.8114 27.8281C29.2611 27.7339 29.3782 31.5345 29.3782 31.5345C28.4539 41.0917 34.8972 49.1619 34.8972 49.1619C37.8003 48.1649 40.2701 47.5022 42.3553 47.0802C40.1661 45.4758 37.4907 43.0595 36.3518 40.221C36.3518 40.221 34.3871 35.1483 36.4107 34.5401C36.4107 34.5401 38.6182 34.801 41.357 42.8933C41.357 42.8933 41.6978 44.9115 43.2902 46.9069C50.6843 45.5895 52.848 47.4415 52.848 47.4415C50.8528 45.1062 54.5344 34.9315 54.5344 34.9315C50.3399 31.9042 43.7836 31.3108 43.7836 31.3108C38.5447 31.3731 38.9012 28.8521 38.9012 28.8521C38.9972 26.6939 41.9253 26.646 41.9253 26.646C51.9238 28.1012 57.2227 34.2483 57.2227 34.2483C58.8039 28.6053 57.3249 24.7145 57.3249 24.7145C48.4228 18.1675 42.1058 19.9546 42.1058 19.9546C39.9301 20.9316 35.9809 21.5717 35.9809 21.5717C33.0496 22.2722 32.1746 19.8931 32.1746 19.8931C33.3774 17.2128 38.8448 16.8061 38.8448 16.8061C48.523 15.8534 57.4394 20.6244 57.4394 20.6244C57.0293 15.0027 53.2712 10.3009 53.2712 10.3009C47.496 6.41681 42.3073 9.08479 42.3073 9.08479C35.0522 12.3657 31.0333 12.6423 31.0333 12.6423C29.1563 12.5212 33.862 10.5115 33.862 10.5115L33.862 10.4917Z" fill="#E3EED9"/>
<path d="M26.3035 22.1943C24.0121 20.6743 21.8656 19.0056 19.7724 17.2467C17.6869 15.4862 15.6867 13.617 13.8008 11.6253C11.9149 9.63362 10.1403 7.52398 8.54269 5.26722C7.74236 4.14114 6.99999 2.96755 6.30341 1.76481C5.60987 0.557485 4.98653 -0.695851 4.4212 -1.97683L6.55583 -2.84211C7.03236 -1.62665 7.56541 -0.426603 8.1687 0.747305C8.78572 1.91048 9.43635 3.06289 10.1587 4.17692C11.5958 6.40653 13.2268 8.53331 14.9828 10.5513C16.7388 12.5693 18.623 14.4937 20.5971 16.3125C22.5713 18.1313 24.6415 19.875 26.8015 21.4535L26.305 22.202L26.3035 22.1943Z" fill="#E3EED9"/>
</svg>
