<svg width="318" height="412" viewBox="0 0 318 412" fill="none" xmlns="http://www.w3.org/2000/svg">
<path d="M86.6193 233.631C10.1928 218.072 2.76177 181.264 2.76177 181.264C-4.05856 221.233 6.23138 252.817 6.23138 252.817C21.8838 269.335 74.9987 271.629 74.9987 271.629C109.127 268.56 103.811 280.331 103.811 280.331C104.412 286.9 70.2836 289.969 70.2836 289.969C39.4592 289.762 11.311 279.747 11.311 279.747C15.8197 294.855 36.4172 321.455 36.4172 321.455C65.3702 375.665 125.663 354.599 125.663 354.599C151.281 351.48 155.165 334.45 155.165 334.45C153.956 292.651 172.686 287.965 172.686 287.965C181.857 290.422 179.592 300.488 179.592 300.488C179.875 323.222 186.374 332.895 186.374 332.895C197.178 353.528 231.694 357.696 231.694 357.696C241.344 353.492 246.317 344.838 253.671 339.68C262.738 333.321 278.83 327.807 284.966 320.839C293.318 311.386 295.05 302.244 299.139 293.846C306.717 278.352 307.289 268.852 307.289 268.852C290.491 280.868 268.456 288.266 268.456 288.266C205.37 302.953 205.534 277.683 205.534 277.683C209.823 272.471 219.978 274.488 219.978 274.488C286.392 283.223 315.552 239.254 315.552 239.254C320.132 209.115 313.991 170.783 313.991 170.783C313.991 170.783 313.708 171.431 313.424 172.079C296.355 209.882 228.985 236.92 228.985 236.92C203.987 247.27 202.753 236.761 202.753 236.761C201.496 226.689 221.211 224.185 221.211 224.185C266.802 207.855 299.534 154.451 299.534 154.451C291.934 113.887 271.084 88.2953 271.084 88.2953C272.652 115.649 229.517 160.405 229.517 160.405C211.805 191.779 189.958 192.934 189.958 192.934C179.523 182.797 195.369 166.732 195.369 166.732C240.208 131.572 248.492 70.851 248.492 70.851C232.323 62.4625 219.363 54.567 209.013 47.3376C211.085 63.3101 211.66 84.6962 204.13 101.211C204.13 101.211 190.384 130.42 179.486 124.218C179.486 124.218 171.568 113.667 195.116 68.7688C195.116 68.7688 202.389 59.0417 204.441 44.031C168.507 17.663 167.603 0.785684 167.603 0.785684C165.741 18.918 106.961 44.7633 106.961 44.7633C111.131 75.1759 135.426 105.769 135.426 105.769C157.144 128.018 144.855 136.809 144.855 136.809C135.192 145.233 122.997 132.851 122.997 132.851C88.3095 83.9433 93.019 36.0126 93.019 36.0126C62.3044 52.3255 51.6471 74.6097 51.6471 74.6097C59.9727 139.655 93.5146 159.473 93.5146 159.473C106.619 164.819 125.539 179.162 125.539 179.162C140.55 188.886 133.913 202.386 133.913 202.386C117.474 208.193 93.3413 186.373 93.3413 186.373C49.622 148.7 33.6091 90.8642 33.6091 90.8642C11.1395 115.644 6.33006 151.038 6.33006 151.038C13.2916 191.749 45.997 203.114 45.997 203.114C89.7963 220.845 107.439 236.976 107.439 236.976C114.605 245.535 86.7045 233.55 86.7045 233.55L86.6193 233.631Z" fill="#D6EBC4"/>
<path d="M167.837 218.183C170.689 234.25 172.31 250.302 173.325 266.496C174.302 282.663 174.462 298.908 173.628 315.164C172.795 331.42 170.998 347.681 167.846 363.783C166.285 371.832 164.284 379.826 161.969 387.743C159.623 395.665 156.791 403.475 153.603 411.148L141.146 405.521C144.416 398.498 147.389 391.295 149.961 383.897C152.431 376.483 154.718 368.97 156.545 361.306C160.239 346.004 162.697 330.29 164.175 314.484C165.654 298.678 166.206 282.705 165.936 266.778C165.665 250.851 164.679 234.819 162.615 219.077L167.863 218.146L167.837 218.183Z" fill="#D6EBC4"/>
</svg>
