<svg width="240" height="310" viewBox="0 0 240 310" fill="none" xmlns="http://www.w3.org/2000/svg">
<path d="M65.8301 175.532C8.2852 163.817 2.69001 136.102 2.69001 136.102C-2.44532 166.197 5.30243 189.978 5.30243 189.978C17.0879 202.415 57.0804 204.143 57.0804 204.143C82.7772 201.831 78.7741 210.694 78.7741 210.694C79.227 215.64 53.5302 217.952 53.5302 217.952C30.3212 217.796 9.12711 210.255 9.12711 210.255C12.5219 221.63 28.0306 241.659 28.0306 241.659C49.8307 282.476 95.228 266.614 95.228 266.614C114.516 264.266 117.441 251.443 117.441 251.443C116.531 219.971 130.633 216.442 130.633 216.442C137.538 218.292 135.833 225.872 135.833 225.872C136.046 242.989 140.94 250.272 140.94 250.272C149.075 265.808 175.064 268.946 175.064 268.946C182.329 265.781 186.073 259.265 191.611 255.381C198.438 250.593 210.554 246.441 215.174 241.195C221.463 234.077 222.767 227.194 225.845 220.871C231.551 209.205 231.982 202.051 231.982 202.051C219.334 211.098 202.743 216.669 202.743 216.669C155.243 227.728 155.366 208.701 155.366 208.701C158.595 204.776 166.242 206.295 166.242 206.295C216.248 212.872 238.203 179.766 238.203 179.766C241.652 157.073 237.028 128.211 237.028 128.211C237.028 128.211 236.815 128.699 236.601 129.187C223.749 157.65 173.024 178.008 173.024 178.008C154.202 185.801 153.272 177.889 153.272 177.889C152.326 170.305 167.17 168.42 167.17 168.42C201.498 156.124 226.143 115.914 226.143 115.914C220.421 85.3713 204.722 66.1023 204.722 66.1023C205.902 86.6983 173.424 120.397 173.424 120.397C160.088 144.02 143.638 144.89 143.638 144.89C135.781 137.257 147.713 125.161 147.713 125.161C181.473 98.6871 187.711 52.9677 187.711 52.9677C175.537 46.6516 165.779 40.7067 157.986 35.2634C159.546 47.2898 159.979 63.3923 154.309 75.827C154.309 75.827 143.959 97.8198 135.753 93.1499C135.753 93.1499 129.792 85.2057 147.522 51.3999C147.522 51.3999 152.999 44.0759 154.543 32.7737C127.487 12.9201 126.807 0.21239 126.807 0.21239C125.404 13.865 81.1459 33.3251 81.1459 33.3251C84.2858 56.2241 102.579 79.2588 102.579 79.2588C118.931 96.0111 109.679 102.63 109.679 102.63C102.402 108.973 93.2203 99.6502 93.2203 99.6502C67.1027 62.8255 70.6487 26.7363 70.6487 26.7363C47.5223 39.019 39.4979 55.7977 39.4979 55.7977C45.7667 104.774 71.0218 119.695 71.0218 119.695C80.8888 123.72 95.1344 134.52 95.1344 134.52C106.437 141.841 101.439 152.006 101.439 152.006C89.0621 156.379 70.8913 139.949 70.8913 139.949C37.9732 111.584 25.9163 68.0365 25.9163 68.0365C8.99799 86.6942 5.37673 113.344 5.37673 113.344C10.6184 143.997 35.2437 152.554 35.2437 152.554C68.2221 165.905 81.5063 178.051 81.5063 178.051C86.9015 184.495 65.8942 175.471 65.8942 175.471L65.8301 175.532Z" fill="#F3F2E7"/>
<path d="M126.982 163.901C129.13 175.998 130.35 188.085 131.115 200.277C131.85 212.45 131.971 224.682 131.343 236.922C130.715 249.162 129.363 261.405 126.989 273.529C125.814 279.59 124.307 285.609 122.564 291.57C120.798 297.535 118.666 303.415 116.265 309.192L106.886 304.956C109.348 299.667 111.586 294.244 113.523 288.673C115.383 283.092 117.104 277.435 118.481 271.664C121.261 260.142 123.112 248.311 124.225 236.41C125.339 224.509 125.754 212.482 125.551 200.49C125.347 188.498 124.605 176.426 123.051 164.574L127.002 163.872L126.982 163.901Z" fill="#F3F2E7"/>
</svg>
